<svg width="20" height="20" viewBox="0 0 20 20" fill="none" xmlns="http://www.w3.org/2000/svg">
<g id="Icon - Dot">
<path id="Union" fill-rule="evenodd" clip-rule="evenodd" d="M9.58331 6.66666C8.89415 6.66666 8.33331 6.10582 8.33331 5.41666C8.33331 4.72749 8.89415 4.16666 9.58331 4.16666C10.2725 4.16666 10.8333 4.72749 10.8333 5.41666C10.8333 6.10582 10.2725 6.66666 9.58331 6.66666ZM8.33331 9.58332C8.33331 10.2725 8.89415 10.8333 9.58331 10.8333C10.2725 10.8333 10.8333 10.2725 10.8333 9.58332C10.8333 8.89416 10.2725 8.33332 9.58331 8.33332C8.89415 8.33332 8.33331 8.89416 8.33331 9.58332ZM8.33331 13.75C8.33331 14.4392 8.89415 15 9.58331 15C10.2725 15 10.8333 14.4392 10.8333 13.75C10.8333 13.0608 10.2725 12.5 9.58331 12.5C8.89415 12.5 8.33331 13.0608 8.33331 13.75Z" fill="white"/>
</g>
</svg>
